#!OML:ASF G:\JayActor3\Patient Classification 1\Patient 1\Session 5\male.ASF
:FULLY-SPECIFIED
:DEGREES
1174
root -45.6726 15.6851 -5.10341 577.442 -87.0938 -567.463
lowerback 34.9804 -0.394496 0.398
upperback 9.74152 -1.6726 -1.52216
thorax -6.97752 -1.23187 -1.14786
lowerneck 1.48848 -0.841832 0.299557
upperneck -17.6073 -0.967222 3.77625
head -5.526 -0.948259 1.20334
rclavicle -3.598e-014 -2.98177e-014
rhumerus -29.2271 2.82344 -88.8398
rradius 41.887
rwrist -2.97689
rhand -20.9974 -6.15907
rfingers 7.12502
rthumb 5.3769 -36.0709
lclavicle -3.598e-014 -2.98177e-014
lhumerus -27.9011 -2.06431 81.344
lradius 40.8203
lwrist 25.4962
lhand -18.2246 10.4531
lfingers 7.12502
lthumb 8.05352 40.2797
rfemur -53.6558 -2.11816 15.6072
rtibia 93.3359
rfoot 12.2358 -9.667
rtoes 16.5118
lfemur -62.7819 18.3302 -32.131
ltibia 75.2987
lfoot 10.9377 -3.99217
ltoes -32.4063
1175
root -45.7578 15.697 -5.09278 577.461 -87.045 -567.488
lowerback 34.8531 -0.42292 0.325745
upperback 9.75245 -1.72884 -1.51249
thorax -6.91948 -1.25843 -1.08152
lowerneck 1.38234 -0.843324 0.276348
upperneck -17.4601 -0.969698 3.80678
head -5.46148 -0.945815 1.21429
rclavicle -2.26615e-014 -1.37161e-014
rhumerus -29.2679 2.94911 -88.8815
rradius 42.0832
rwrist -2.96289
rhand -20.9652 -6.24073
rfingers 7.12502
rthumb 5.40793 -36.1517
lclavicle -2.26615e-014 -1.37161e-014
lhumerus -27.7754 -2.14512 81.3394
lradius 40.7797
lwrist 25.6315
lhand -18.1481 10.5184
lfingers 7.12502
lthumb 8.12744 40.3421
rfemur -54.1827 -2.12837 15.7874
rtibia 93.0027
rfoot 10.7619 -9.16412
rtoes 16.7168
lfemur -62.4097 18.5124 -32.1335
ltibia 75.3559
lfoot 10.5486 -3.97958
ltoes -32.5173
1176
root -45.8426 15.7083 -5.08294 577.221 -86.9926 -567.26
lowerback 34.727 -0.447435 0.262463
upperback 9.75673 -1.77645 -1.50251
thorax -6.86879 -1.28074 -1.02271
lowerneck 1.2659 -0.845728 0.227623
upperneck -17.2856 -0.97123 3.86296
head -5.38639 -0.942021 1.23704
rclavicle 9.34288e-015 2.5842e-014
rhumerus -29.3292 3.06104 -88.9198
rradius 42.2591
rwrist -2.94489
rhand -20.9325 -6.31813
rfingers 7.12502
rthumb 5.43949 -36.2283
lclavicle 9.34288e-015 2.5842e-014
lhumerus -27.6635 -2.18924 81.3637
lradius 40.7011
lwrist 25.7038
lhand -18.0952 10.5317
lfingers 7.12502
lthumb 8.17849 40.3534
rfemur -54.7071 -2.11005 15.9899
rtibia 92.5665
rfoot 9.34877 -8.69921
rtoes 16.8809
lfemur -62.0152 18.7068 -32.1176
ltibia 75.3973
lfoot 10.162 -3.91857
ltoes -32.5222
1177
root -45.9273 15.72 -5.07361 576.925 -86.9357 -566.986
lowerback 34.5965 -0.468861 0.20736
upperback 9.7624 -1.81774 -1.49547
thorax -6.81492 -1.30009 -0.973811
lowerneck 1.13565 -0.856763 0.166438
upperneck -17.0912 -0.982552 3.94111
head -5.30249 -0.943055 1.26883
rclavicle -2.18663e-014 -2.76311e-014
rhumerus -29.3921 3.14889 -88.9525
rradius 42.3905
rwrist -2.92532
rhand -20.9106 -6.36358
rfingers 7.12502
rthumb 5.46062 -36.2732
lclavicle -2.18663e-014 -2.76311e-014
lhumerus -27.5504 -2.22612 81.4036
lradius 40.6006
lwrist 25.7503
lhand -18.0447 10.5344
lfingers 7.12502
lthumb 8.22715 40.3542
rfemur -55.211 -2.07553 16.1985
rtibia 92.0265
rfoot 7.97217 -8.28092
rtoes 17.0493
lfemur -61.5791 18.9086 -32.0923
ltibia 75.4146
lfoot 9.77866 -3.81923
ltoes -32.4421
1178
root -46.0129 15.7327 -5.06448 576.725 -86.8828 -566.825
lowerback 34.4554 -0.493234 0.167401
upperback 9.77367 -1.85827 -1.49399
thorax -6.75142 -1.3191 -0.939444
lowerneck 0.990067 -0.884344 0.117266
upperneck -16.8782 -1.01533 4.02725
head -5.2099 -0.955312 1.3017
rclavicle 3.18055e-015 -9.93923e-016
rhumerus -29.4525 3.20845 -88.9817
rradius 42.467
rwrist -2.90724
rhand -20.9002 -6.38057
rfingers 7.12502
rthumb 5.47074 -36.29
lclavicle 3.18055e-015 -9.93923e-016
lhumerus -27.4349 -2.26363 81.4497
lradius 40.492
lwrist 25.7817
lhand -17.9894 10.5395
lfingers 7.12502
lthumb 8.28059 40.3572
rfemur -55.6627 -2.03948 16.4046
rtibia 91.3832
rfoot 6.62281 -7.94869
rtoes 17.3762
lfemur -61.0803 19.1065 -32.0562
ltibia 75.4019
lfoot 9.39333 -3.71251
ltoes -32.3509
1179
root -46.099 15.7459 -5.05573 576.685 -86.824 -566.841
lowerback 34.3079 -0.518642 0.121295
upperback 9.77131 -1.9013 -1.50272
thorax -6.70054 -1.3385 -0.911651
lowerneck 0.921684 -0.919756 0.110708
upperneck -16.6795 -1.05591 4.09608
head -5.13529 -0.973043 1.32307
rclavicle 1.03368e-014 -3.97569e-016
rhumerus -29.5393 3.24978 -89.0203
rradius 42.4713
rwrist -2.89826
rhand -20.906 -6.35968
rfingers 7.12502
rthumb 5.46512 -36.2692
lclavicle 1.03368e-014 -3.97569e-016
lhumerus -27.3673 -2.28461 81.4816
lradius 40.4225
lwrist 25.803
lhand -17.9146 10.593
lfingers 7.12502
lthumb 8.35278 40.4078
rfemur -56.0716 -1.9978 16.6
rtibia 90.642
rfoot 5.27747 -7.72923
rtoes 17.861
lfemur -60.5245 19.2991 -32.0148
ltibia 75.3574
lfoot 8.98002 -3.62819
ltoes -32.3058
